<?xml version="1.0" encoding="UTF-8"?>
<svg  version="1.1" viewBox="0 40 1200 1200" xmlns="http://www.w3.org/2000/svg">
 <path d="M 1162.5 475 c -9.9 0 -19.5 3.9 -26.5 11 c -7 7 -11 16.6 -11 26.5 v 37.5 h -103.2 c -9.1 -77.8 -39.7 -151.4 -88.3 -212.8 l 73 -73 l 29.4 24.9 c 7 7 16.6 11 26.5 11 c 10 0 19.5 -3.9 26.5 -11 c 7 -7 11 -16.6 11 -26.5 s -4 -19.5 -11 -26.5 l -125 -125 c -9.5 -9.5 -23.3 -13.2 -36.2 -9.7 c -12.9 3.5 -23 13.6 -26.5 26.5 c -3.5 12.9 0.2 26.7 9.7 36.2 l 24.9 29.4 l -73 73 l 0 0 c -61.4 -48.6 -135.1 -79.1 -212.8 -88.2 v -103.2 h 37.5 c 13.4 0 25.8 -7.1 32.5 -18.8 c 6.7 -11.6 6.7 -25.9 0 -37.5 c -6.7 -11.6 -19.1 -18.8 -32.5 -18.8 h -175 c -13.4 0 -25.8 7.1 -32.5 18.8 c -6.7 11.6 -6.7 25.9 0 37.5 c 6.7 11.6 19.1 18.8 32.5 18.8 h 37.5 v 103.2 c -77.8 9.1 -151.4 39.7 -212.8 88.2 l -73 -73 l 24.9 -29.4 c 9.5 -9.5 13.2 -23.3 9.7 -36.2 c -3.5 -12.9 -13.6 -23 -26.5 -26.5 c -12.9 -3.5 -26.7 0.2 -36.2 9.7 l -122.1 125 h 0 c -9.4 9.5 -13.1 23.3 -9.6 36.2 s 13.6 23 26.5 26.5 c 12.9 3.5 26.7 -0.2 36.2 -9.6 l 26.5 -24.9 l 73 73 c -48.6 61.4 -79.1 135.1 -88.3 212.8 h -103.2 v -37.5 c 0 -13.4 -7.1 -25.8 -18.8 -32.5 c -11.6 -6.7 -25.9 -6.7 -37.5 0 c -11.6 6.7 -18.8 19.1 -18.8 32.5 v 175 c 0 13.4 7.1 25.8 18.8 32.5 c 11.6 6.7 25.9 6.7 37.5 0 c 11.6 -6.7 18.8 -19.1 18.8 -32.5 v -37.5 h 103.2 c 9.1 77.8 39.7 151.4 88.3 212.8 l -73 73 l -29.4 -24.9 c -9.5 -9.5 -23.3 -13.1 -36.2 -9.7 c -12.9 3.5 -23 13.6 -26.5 26.5 c -3.5 12.9 0.2 26.7 9.7 36.2 l 125 125 h 0 c 9.5 9.5 23.3 13.2 36.2 9.7 c 12.9 -3.5 23 -13.6 26.5 -26.5 c 3.5 -12.9 -0.2 -26.7 -9.7 -36.2 l -24.9 -29.4 l 73 -73 v 0 c 61.4 48.6 135.1 79.1 212.8 88.2 v 103.2 h -37.5 c -13.4 0 -25.8 7.1 -32.5 18.8 c -6.7 11.6 -6.7 25.9 0 37.5 c 6.7 11.6 19.1 18.8 32.5 18.8 h 175 c 13.4 0 25.8 -7.1 32.5 -18.8 c 6.7 -11.6 6.7 -25.9 0 -37.5 c -6.7 -11.6 -19.1 -18.8 -32.5 -18.8 h -37.5 v -103.2 c 77.8 -9.1 151.4 -39.7 212.8 -88.2 l 73 73 l -24.9 29.4 v 0 c -7 7 -11 16.6 -11 26.5 s 3.9 19.5 11 26.5 c 7 7 16.6 11 26.5 11 c 9.9 0 19.5 -3.9 26.5 -11 l 125 -125 h 0 c 7 -7 11 -16.6 11 -26.5 c 0 -10 -3.9 -19.5 -11 -26.5 c -7 -7 -16.6 -11 -26.5 -11 c -10 0 -19.5 4 -26.5 11 l -29.4 24.9 l -73 -73 c 48.6 -61.4 79.1 -135.1 88.3 -212.8 h 103.2 v 37.5 c 0 13.4 7.1 25.8 18.8 32.5 c 11.6 6.7 25.9 6.7 37.5 0 c 11.6 -6.7 18.8 -19.1 18.8 -32.5 v -175 c 0 -9.9 -3.9 -19.5 -11 -26.5 c -7 -7 -16.6 -11 -26.5 -11 z m -700 25 c -23.2 0 -45.5 -9.2 -61.9 -25.6 s -25.6 -38.7 -25.6 -61.9 s 9.2 -45.5 25.6 -61.9 s 38.7 -25.6 61.9 -25.6 s 45.5 9.2 61.9 25.6 s 25.6 38.7 25.6 61.9 s -9.2 45.5 -25.6 61.9 s -38.7 25.6 -61.9 25.6 z m 287.5 325 c -13.3 0 -26 -5.3 -35.4 -14.6 s -14.6 -22.1 -14.6 -35.4 s 5.3 -26 14.6 -35.4 s 22.1 -14.6 35.4 -14.6 s 26 5.3 35.4 14.6 s 14.6 22.1 14.6 35.4 s -5.3 26 -14.6 35.4 c -9.4 9.4 -22.1 14.6 -35.4 14.6 z"/>
</svg>
