<?xml version="1.0" encoding="UTF-8"?>
<svg 
version="1.1"
 viewBox="180 130 360 360" xmlns="http://www.w3.org/2000/svg">
 <g>
  <path d="m256.67 221.67h186.67-0.003907c6.4453 0 11.668-5.2266 11.668-11.668s-5.2227-11.668-11.668-11.668h-186.66c-6.4453 0-11.668 5.2266-11.668 11.668s5.2227 11.668 11.668 11.668z"/>
  <path d="m256.67 291.67h186.67-0.003907c6.4453 0 11.668-5.2266 11.668-11.668s-5.2227-11.668-11.668-11.668h-186.66c-6.4453 0-11.668 5.2266-11.668 11.668s5.2227 11.668 11.668 11.668z"/>
  <path d="m256.67 361.67h186.67-0.003907c6.4453 0 11.668-5.2266 11.668-11.668s-5.2227-11.668-11.668-11.668h-186.66c-6.4453 0-11.668 5.2266-11.668 11.668s5.2227 11.668 11.668 11.668z"/>
 </g>
</svg>
