<svg  viewBox="0 0 700 700" xmlns="http://www.w3.org/2000/svg" xmlns:xlink="http://www.w3.org/1999/xlink"><defs><symbol id="prefix__a" overflow="visible"><path d="M7.328-.438c-.375.2-.773.344-1.187.438a5.28 5.28 0 01-1.282.156c-1.324 0-2.375-.367-3.156-1.11C.93-1.703.547-2.71.547-3.983.547-5.254.93-6.258 1.703-7c.781-.75 1.832-1.125 3.156-1.125.446 0 .875.055 1.282.156.414.106.812.25 1.187.438v1.656a4.473 4.473 0 00-1.14-.563 3.552 3.552 0 00-1.157-.187c-.73 0-1.308.234-1.734.703-.418.469-.625 1.117-.625 1.938 0 .824.207 1.476.625 1.953.426.468 1.004.703 1.734.703.407 0 .79-.063 1.157-.188a4.686 4.686 0 001.14-.578z"/></symbol><symbol id="prefix__b" overflow="visible"><path d="M5.36-4.36a2.538 2.538 0 00-.5-.156 2.218 2.218 0 00-.5-.062c-.493 0-.872.156-1.141.469-.262.312-.39.765-.39 1.359V0H.921v-5.984h1.906V-5c.25-.395.531-.68.844-.86.32-.175.707-.265 1.156-.265.063 0 .129.008.203.016.07 0 .18.011.328.03z"/></symbol><symbol id="prefix__c" overflow="visible"><path d="M6.89-3v.531H2.423c.039.45.203.79.484 1.016.281.23.664.344 1.156.344.407 0 .817-.055 1.235-.172a6.444 6.444 0 001.312-.563v1.485c-.46.168-.914.293-1.36.375-.448.093-.901.14-1.359.14-1.085 0-1.93-.273-2.53-.828-.594-.55-.891-1.32-.891-2.312 0-.977.289-1.743.875-2.297.593-.563 1.406-.844 2.437-.844.945 0 1.703.289 2.266.86.562.562.844 1.32.844 2.265zm-1.968-.64c0-.364-.11-.657-.328-.876a1.062 1.062 0 00-.813-.343c-.375 0-.68.105-.906.312-.23.211-.375.512-.438.906z"/></symbol><symbol id="prefix__d" overflow="visible"><path d="M3.594-2.688c-.399 0-.7.07-.906.204-.2.136-.297.336-.297.593 0 .243.082.434.25.578.164.137.39.204.672.204.363 0 .664-.13.906-.391.25-.258.375-.582.375-.969v-.219zm2.922-.718V0H4.594v-.89c-.262.367-.555.632-.875.796-.313.164-.7.25-1.156.25-.625 0-1.133-.176-1.516-.531C.66-.738.469-1.211.469-1.797c0-.695.238-1.207.719-1.531.488-.332 1.25-.5 2.28-.5h1.126v-.156c0-.301-.121-.52-.36-.657-.242-.144-.609-.218-1.109-.218-.418 0-.805.043-1.156.125-.344.086-.668.21-.969.375v-1.47c.406-.093.813-.163 1.219-.218.414-.05.832-.078 1.25-.078 1.07 0 1.848.215 2.328.64.477.43.719 1.122.719 2.079z"/></symbol><symbol id="prefix__e" overflow="visible"><path d="M3-7.688v1.704h1.984v1.375H3v2.53c0 .282.055.47.172.563.113.094.332.14.656.14h.985V0H3.172c-.75 0-1.29-.156-1.61-.469-.312-.312-.468-.847-.468-1.61v-2.53H.14v-1.375h.953v-1.704z"/></symbol><symbol id="prefix__f" overflow="visible"><path d="M4.984-5.11v-3.202h1.922V0H4.984v-.86c-.261.344-.554.602-.875.766-.312.164-.68.25-1.093.25-.743 0-1.352-.289-1.829-.875C.72-1.313.485-2.066.485-2.984c0-.926.235-1.68.704-2.266.476-.582 1.085-.875 1.828-.875.414 0 .78.086 1.093.25.32.168.614.422.875.766zm-1.25 3.876c.407 0 .711-.145.922-.438.219-.3.328-.738.328-1.312 0-.57-.109-1.004-.328-1.297-.21-.301-.515-.453-.922-.453s-.718.152-.937.453c-.219.293-.328.726-.328 1.297 0 .574.11 1.011.328 1.312.219.293.531.438.937.438z"/></symbol><symbol id="prefix__g" overflow="visible"><path d="M4.11-1.234c.406 0 .71-.145.921-.438.219-.3.328-.738.328-1.312 0-.57-.109-1.004-.328-1.297-.21-.301-.515-.453-.922-.453-.418 0-.734.152-.953.453-.218.304-.328.734-.328 1.297s.11.996.328 1.296c.219.305.535.454.953.454zM2.827-5.11c.258-.344.551-.598.875-.766.32-.164.692-.25 1.11-.25.738 0 1.343.293 1.812.875.477.586.719 1.34.719 2.266 0 .918-.242 1.671-.719 2.265-.469.586-1.074.875-1.812.875-.418 0-.79-.086-1.11-.25a2.547 2.547 0 01-.875-.765V0H.922v-8.313h1.906z"/></symbol><symbol id="prefix__h" overflow="visible"><path d="M.14-5.984h1.907l1.61 4.062 1.359-4.062h1.922L4.422.562c-.262.665-.559 1.13-.89 1.391-.337.27-.778.406-1.329.406h-1.11V1.11h.595c.32 0 .554-.054.703-.156.156-.105.273-.293.36-.562l.046-.157z"/></symbol><symbol id="prefix__i" overflow="visible"><path d="M1-7.969h2.625l1.813 4.266L7.266-7.97h2.609V0H7.937v-5.828L6.095-1.531H4.797L2.953-5.828V0H1z"/></symbol><symbol id="prefix__j" overflow="visible"><path d="M5.594-5.797v1.453a7.672 7.672 0 00-1.188-.375 4.594 4.594 0 00-1.078-.14c-.367 0-.637.046-.812.14-.18.094-.266.235-.266.422 0 .156.066.277.203.36.133.074.375.132.719.171l.344.047c.976.125 1.632.336 1.968.625.333.281.5.727.5 1.328 0 .637-.234 1.118-.703 1.438-.468.324-1.168.484-2.093.484-.399 0-.809-.031-1.235-.094a10.624 10.624 0 01-1.297-.28v-1.454a5.404 5.404 0 002.39.563c.376 0 .657-.051.845-.157a.5.5 0 00.281-.468c0-.164-.07-.29-.203-.375-.125-.082-.383-.149-.766-.204l-.328-.03c-.855-.114-1.453-.313-1.797-.595C.734-3.227.563-3.664.563-4.25c0-.633.218-1.102.656-1.406.437-.313 1.101-.469 2-.469.351 0 .723.027 1.11.078.382.055.804.137 1.265.25z"/></symbol><symbol id="prefix__k" overflow="visible"><path d="M3.063-6.422v4.875h.734c.844 0 1.484-.207 1.922-.625.445-.414.672-1.023.672-1.828 0-.79-.227-1.39-.672-1.797-.438-.414-1.078-.625-1.922-.625zM1-7.969h2.172c1.207 0 2.11.09 2.703.266a3.62 3.62 0 011.531.86c.375.366.649.78.828 1.25.176.468.266 1 .266 1.593a4.68 4.68 0 01-.266 1.625 3.28 3.28 0 01-.828 1.234c-.43.418-.945.715-1.547.891-.593.168-1.492.25-2.687.25H1z"/></symbol><symbol id="prefix__l" overflow="visible"><path d="M6.938-3.64V0H5.016v-2.781c0-.52-.016-.88-.047-1.078-.024-.196-.059-.336-.11-.422a.817.817 0 00-.312-.297.886.886 0 00-.438-.11c-.398 0-.71.157-.937.47-.23.304-.344.73-.344 1.28V0H.922v-8.312h1.906v3.203c.29-.344.598-.598.922-.766.32-.164.68-.25 1.078-.25.688 0 1.207.215 1.563.64.363.419.546 1.032.546 1.844z"/></symbol><symbol id="prefix__m" overflow="visible"><path d="M.922-5.984h1.906V0H.922zm0-2.329h1.906v1.563H.922z"/></symbol><symbol id="prefix__n" overflow="visible"><path d="M6.469-4.984c.238-.375.523-.657.86-.844a2.118 2.118 0 011.093-.297c.687 0 1.207.215 1.562.64.364.419.547 1.032.547 1.844V0H8.61v-3.265c.008-.051.016-.126.016-.22 0-.413-.062-.718-.187-.906-.125-.195-.329-.297-.61-.297a.948.948 0 00-.844.454c-.199.304-.296.734-.296 1.297V0H4.766v-3.125c0-.656-.059-1.078-.172-1.266-.117-.195-.32-.296-.61-.296-.375 0-.664.152-.859.453-.2.304-.297.734-.297 1.297V0H.906v-5.984h1.922v.875c.238-.332.508-.582.813-.75.3-.176.632-.266 1-.266.414 0 .78.102 1.093.297.32.2.567.48.735.844z"/></symbol><symbol id="prefix__o" overflow="visible"><path d="M4.86-8.313v1.25H3.796c-.274 0-.461.055-.563.157-.105.093-.156.265-.156.515v.407h1.625v1.375H3.078V0H1.156v-4.61H.203v-1.374h.953v-.407c0-.656.18-1.14.547-1.453.363-.312.926-.468 1.688-.468z"/></symbol><symbol id="prefix__p" overflow="visible"><path d="M3.766-4.766c-.43 0-.75.157-.97.47-.218.304-.327.741-.327 1.312 0 .574.11 1.011.328 1.312.219.305.539.453.969.453.414 0 .734-.148.953-.453.218-.3.328-.738.328-1.312 0-.57-.11-1.008-.328-1.313-.219-.312-.54-.469-.953-.469zm0-1.359c1.03 0 1.832.281 2.406.844.582.554.875 1.32.875 2.297 0 .98-.293 1.75-.875 2.312-.574.555-1.375.828-2.406.828s-1.84-.273-2.422-.828C.758-1.234.469-2.004.469-2.984c0-.977.289-1.743.875-2.297.582-.563 1.39-.844 2.422-.844z"/></symbol><symbol id="prefix__q" overflow="visible"><path d="M1-7.969h2.297L6.203-2.5v-5.469h1.953V0H5.86L2.953-5.469V0H1z"/></symbol><symbol id="prefix__r" overflow="visible"><path d="M.86-2.328v-3.656H2.78v.593c0 .336-.008.747-.015 1.235v.969c0 .48.007.828.03 1.046.032.211.079.36.142.454.07.125.171.226.296.296.125.063.27.094.438.094.394 0 .707-.148.937-.453.227-.312.344-.738.344-1.281v-2.953h1.922V0H4.953v-.86c-.281.345-.586.602-.906.766-.324.165-.684.25-1.078.25-.688 0-1.215-.207-1.578-.625C1.035-.894.859-1.515.859-2.328z"/></symbol><symbol id="prefix__s" overflow="visible"><path d="M6.938-3.64V0H5.016v-2.781c0-.52-.016-.88-.047-1.078-.024-.196-.059-.336-.11-.422a.817.817 0 00-.312-.297.886.886 0 00-.438-.11c-.398 0-.71.157-.937.47-.23.304-.344.73-.344 1.28V0H.922v-5.984h1.906v.875c.29-.344.598-.598.922-.766.32-.164.68-.25 1.078-.25.688 0 1.207.215 1.563.64.363.419.546 1.032.546 1.844z"/></symbol><symbol id="prefix__t" overflow="visible"><path d="M1-7.969h3.422c1.008 0 1.785.227 2.328.672.54.45.813 1.09.813 1.922 0 .836-.274 1.48-.813 1.937-.543.45-1.32.672-2.328.672h-1.36V0H1zm2.063 1.485v2.234h1.14c.395 0 .703-.098.922-.297.219-.195.328-.473.328-.828 0-.352-.11-.625-.328-.813-.219-.195-.527-.296-.922-.296z"/></symbol><symbol id="prefix__u" overflow="visible"><path d="M.922-5.984h1.906V-.11c0 .8-.195 1.41-.578 1.828-.387.425-.945.64-1.672.64h-.937V1.11h.328c.363 0 .613-.086.75-.25C.85.691.922.367.922-.109zm0-2.329h1.906v1.563H.922z"/></symbol><symbol id="prefix__v" overflow="visible"><path d="M5.75-5.797v1.563a3.245 3.245 0 00-.781-.391 2.386 2.386 0 00-.813-.14c-.531 0-.949.156-1.25.468-.293.313-.437.75-.437 1.313s.144 1 .437 1.312c.301.305.719.453 1.25.453.301 0 .582-.039.844-.125.27-.094.52-.222.75-.39v1.562c-.305.106-.61.18-.922.234a4.491 4.491 0 01-.906.094c-1.086 0-1.934-.273-2.547-.828-.605-.55-.906-1.32-.906-2.312 0-.989.3-1.758.906-2.313.613-.55 1.46-.828 2.547-.828.312 0 .617.031.922.094.3.054.601.133.906.234z"/></symbol></defs><path d="M270.16 168.21h262.82c4.598 0 8.426-3.715 8.426-8.418 0-4.707-3.715-8.426-8.426-8.426H270.16c-4.598 0-8.426 3.715-8.426 8.426 0 4.7 3.828 8.418 8.426 8.418zM245.87 142.85l-22.523-3.281-10.066-20.348c-1.418-2.848-4.262-4.7-7.543-4.7-3.168 0-6.129 1.856-7.543 4.7l-10.066 20.348-22.535 3.281a8.272 8.272 0 00-6.777 5.684c-.992 3.066-.114 6.347 2.074 8.535l16.293 15.859-3.828 22.422a8.45 8.45 0 003.281 8.203c2.621 1.855 6.016 2.074 8.863.66l20.125-10.617 20.121 10.613a8.2 8.2 0 003.942.98c1.754 0 3.504-.546 4.922-1.64 2.62-1.863 3.828-5.035 3.28-8.203l-3.827-22.422 16.293-15.86c2.3-2.187 3.066-5.581 2.074-8.534-.867-2.946-3.379-5.133-6.559-5.68zm-26.461 21.215a8.52 8.52 0 00-2.41 7.434l1.75 10.066-8.973-4.7a8.113 8.113 0 00-7.758 0l-8.972 4.7 1.753-10.066c.434-2.735-.433-5.47-2.41-7.434l-7.324-7.11 10.06-1.417c2.733-.446 5.034-2.086 6.347-4.598l4.476-9.074 4.489 9.074c1.207 2.512 3.613 4.152 6.347 4.598l10.06 1.418zM532.98 271.57H270.16c-4.598 0-8.426 3.727-8.426 8.426 0 4.597 3.727 8.426 8.426 8.426h262.82c4.598 0 8.426-3.727 8.426-8.426 0-4.598-3.715-8.426-8.426-8.426zM245.87 263.05l-22.523-3.281-10.066-20.348c-1.418-2.848-4.262-4.7-7.543-4.7-3.168 0-6.129 1.856-7.543 4.7l-10.07 20.348-22.535 3.281a8.268 8.268 0 00-6.777 5.691c-.992 3.059-.114 6.34 2.074 8.528l16.52 15.859-3.828 22.422a8.434 8.434 0 003.281 8.203c1.418 1.094 3.168 1.64 4.922 1.64 1.308 0 2.621-.324 3.93-.98l20.133-10.613 20.12 10.613c2.848 1.527 6.231 1.207 8.864-.66 2.621-1.864 3.828-5.035 3.281-8.203l-3.828-22.422 16.293-15.86c2.3-2.187 3.059-5.581 2.074-8.527-1.086-3.07-3.597-5.257-6.777-5.691zm-26.461 21.215a8.543 8.543 0 00-2.41 7.441l1.754 10.06-8.973-4.7a8.113 8.113 0 00-7.758 0l-8.973 4.7 1.754-10.06c.434-2.734-.433-5.468-2.41-7.441l-7.324-7.11 10.059-1.417c2.734-.434 5.035-2.075 6.348-4.598l4.476-9.074 4.489 9.074c1.207 2.52 3.613 4.16 6.347 4.598l10.06 1.418zM532.98 391.79H270.16c-4.598 0-8.426 3.715-8.426 8.418 0 4.598 3.727 8.426 8.426 8.426h262.82c4.598 0 8.426-3.715 8.426-8.426 0-4.7-3.715-8.418-8.426-8.418zM245.87 383.14l-22.523-3.281-10.066-20.336c-1.418-2.848-4.262-4.707-7.543-4.707-3.168 0-6.129 1.863-7.543 4.707l-10.066 20.336-22.535 3.281a8.305 8.305 0 00-6.777 5.691c-.992 3.059-.114 6.34 2.074 8.528l16.293 15.859-3.828 22.422a8.434 8.434 0 003.281 8.203c1.418 1.094 3.168 1.64 4.922 1.64 1.316 0 2.621-.324 3.941-.98l20.121-10.605 20.121 10.605c2.848 1.527 6.239 1.207 8.864-.66 2.62-1.856 3.828-5.024 3.28-8.203l-3.827-22.422 16.293-15.86c2.3-2.187 3.066-5.57 2.074-8.527-.863-3.058-3.375-5.246-6.555-5.691zm-26.461 21.227a8.52 8.52 0 00-2.41 7.434l1.754 10.066-8.973-4.707a8.156 8.156 0 00-7.758 0l-8.973 4.707 1.754-10.066c.434-2.735-.433-5.47-2.41-7.434l-7.324-7.11 10.059-1.425c2.734-.434 5.035-2.074 6.348-4.59l4.476-9.082 4.489 9.082c1.207 2.512 3.613 4.152 6.347 4.59l10.06 1.426z"/></svg>