<?xml version="1.0" encoding="UTF-8"?>
<svg  version="1.1" viewBox="0 0 700 700" xmlns="http://www.w3.org/2000/svg">
 <path d="m347.2 545.36c-45.875 0-91.109-11.848-130.95-34.246-7.5703-4.4883-12.223-12.625-12.25-21.426-0.023438-8.8008 4.5859-16.965 12.133-21.496 7.5469-4.5273 16.918-4.75 24.672-0.58594 45.363 25.141 98.121 33.527 149.05 23.691 8.4375-1.0586 16.836 2.2461 22.289 8.7773 5.4492 6.5273 7.2031 15.383 4.6562 23.496-2.5469 8.1172-9.0508 14.379-17.254 16.617-17.23 3.4453-34.461 5.168-52.34 5.168m-169.51-68.922c-6.0312 0-12.492-2.1523-17.23-7.1094v0.003907c-36.035-35.109-61.418-79.684-73.23-128.59-2.0078-6.5742-1.2227-13.684 2.1758-19.656 3.3984-5.9727 9.1094-10.285 15.785-11.918 6.6758-1.6289 13.73-0.44141 19.5 3.293 5.7734 3.7305 9.75 9.6758 11 16.434 9.4766 39.848 30.152 76.031 59.66 104.68l0.003907 0.003906c4.7812 4.668 7.4961 11.062 7.5312 17.746 0.03125 6.6836-2.6133 13.105-7.3477 17.824-4.7344 4.7188-11.16 7.3477-17.848 7.2891m-72.582-188.46h-1.5078c-6.6719-0.33203-12.93-3.3203-17.379-8.2969-4.4531-4.9766-6.7266-11.531-6.3164-18.195 2.1523-32.309 9.6914-63.539 22.832-92.832 2.7148-6.0547 7.7227-10.781 13.922-13.145 6.1992-2.3633 13.086-2.168 19.141 0.54688 6.0547 2.7109 10.785 7.7188 13.148 13.922 2.3594 6.1992 2.1641 13.082-0.55078 19.141-10.688 23.797-16.965 49.34-18.523 75.383-0.64453 13.137-11.629 23.477-24.77 23.477m75.602-161.97c-6.4609 0-12.922-2.5859-17.445-7.3242-4.6875-4.6992-7.3867-11.023-7.5391-17.66 0-6.4609 2.8008-12.922 7.5391-17.66 4.7891-4.4844 11.102-6.9766 17.66-6.9766s12.875 2.4922 17.664 6.9766c4.5234 4.5234 7.1094 10.984 7.1094 17.66 0 6.4609-2.5859 12.922-7.1094 17.66-1.1484 1.1797-2.4531 2.1953-3.8789 3.0156-1.3242 0.98047-2.7734 1.7734-4.3086 2.3711l-4.7383 1.5078c-1.625 0.34375-3.2891 0.48828-4.9531 0.42969m281.94 390.06c-7.457-0.015625-14.52-3.3633-19.254-9.1289-4.7344-5.7617-6.6445-13.34-5.2109-20.656 1.4336-7.3203 6.0625-13.617 12.621-17.168 42.75-22.938 76.605-59.508 96.188-103.89 19.582-44.387 23.762-94.047 11.879-141.08-11.883-47.039-39.148-88.754-77.461-118.52-38.312-29.762-85.477-45.859-133.99-45.742-8.9258 0-17.172-4.7617-21.637-12.492-4.4609-7.7266-4.4609-17.254 0-24.984 4.4648-7.7305 12.711-12.492 21.637-12.492 59.43 0.28125 117.07 20.309 163.88 56.934 46.801 36.629 80.094 87.773 94.645 145.39 14.555 57.617 9.5391 118.44-14.258 172.89-23.793 54.457-65.016 99.457-117.18 127.92-3.6602 2.1523-7.7539 3.0156-11.848 3.0156"/>
</svg>
