<?xml version="1.0" encoding="UTF-8"?>
<svg  version="1.1" viewBox="0 0 1000 1000" xmlns="http://www.w3.org/2000/svg">
 <g>
  <path d="m558.95 271.25h-417.9c-4.832 0-8.75 3.918-8.75 8.75s3.918 8.75 8.75 8.75h417.9c4.832 0 8.75-3.918 8.75-8.75s-3.918-8.75-8.75-8.75z"/>
  <path d="m558.95 527.1h-417.9c-4.832 0-8.75 3.9141-8.75 8.75 0 4.832 3.918 8.75 8.75 8.75h417.9c4.832 0 8.75-3.918 8.75-8.75 0-4.8359-3.918-8.75-8.75-8.75z"/>
  <path d="m141.05 32.898h417.9c4.832 0 8.75-3.9141 8.75-8.75 0-4.832-3.918-8.75-8.75-8.75h-417.9c-4.832 0-8.75 3.918-8.75 8.75 0 4.8359 3.918 8.75 8.75 8.75z"/>
 </g>
</svg>
