<?xml version="1.0" encoding="UTF-8"?>
<svg  version="1.1" viewBox="50 20 600 600" xmlns="http://www.w3.org/2000/svg">
 <g fill-rule="evenodd">
  <path d="m121.33 220.11c4.3281-0.003906 8.4805-1.7266 11.539-4.7852 3.0625-3.0625 4.7812-7.2109 4.7891-11.539v-38.117c0-25.992 10.324-50.918 28.703-69.297s43.305-28.703 69.297-28.703h38.113c5.8359 0 11.23-3.1133 14.148-8.168 2.918-5.0547 2.918-11.281 0-16.336-2.918-5.0547-8.3125-8.168-14.148-8.168h-38.098c-34.652 0.015625-67.879 13.785-92.383 38.289-24.504 24.504-38.273 57.73-38.289 92.383v38.117c0.003906 4.3281 1.7266 8.4766 4.7891 11.539 3.0586 3.0586 7.2109 4.7812 11.539 4.7852z"/>
  <path d="m273.79 492.33h-38.117c-25.992 0-50.918-10.324-69.297-28.703s-28.703-43.305-28.703-69.297v-38.098c0-5.8359-3.1133-11.23-8.168-14.148-5.0547-2.918-11.281-2.918-16.336 0-5.0547 2.918-8.168 8.3125-8.168 14.148v38.113c0.019531 34.652 13.793 67.875 38.293 92.375 24.504 24.496 57.73 38.266 92.379 38.281h38.117c5.8359 0 11.227-3.1133 14.145-8.168 2.918-5.0547 2.918-11.281 0-16.336-2.918-5.0547-8.3086-8.168-14.145-8.168z"/>
  <path d="m578.67 339.89c-4.3281 0.003906-8.4805 1.7266-11.539 4.7852-3.0625 3.0625-4.7812 7.2109-4.7891 11.539v38.117c0 25.992-10.324 50.918-28.703 69.297s-43.305 28.703-69.297 28.703h-38.133c-5.8359 0-11.227 3.1133-14.145 8.168-2.918 5.0547-2.918 11.281 0 16.336 2.918 5.0547 8.3086 8.168 14.145 8.168h38.117c34.652-0.015625 67.879-13.785 92.383-38.289 24.504-24.504 38.273-57.73 38.289-92.383v-38.098c0-4.332-1.7188-8.4883-4.7812-11.551-3.0625-3.0664-7.2148-4.7891-11.547-4.793z"/>
  <path d="m464.33 35h-38.117c-5.8359 0-11.227 3.1133-14.145 8.168-2.918 5.0547-2.918 11.281 0 16.336 2.918 5.0547 8.3086 8.168 14.145 8.168h38.117c25.992 0 50.918 10.324 69.297 28.703s28.703 43.305 28.703 69.297v38.117c0 5.8359 3.1133 11.227 8.168 14.145 5.0547 2.918 11.281 2.918 16.336 0 5.0547-2.918 8.168-8.3086 8.168-14.145v-38.117c-0.015625-34.652-13.785-67.879-38.289-92.383-24.504-24.504-57.73-38.273-92.383-38.289z"/>
  <path d="m278.13 133h-39.203c-9.5273 0.003906-18.66 3.793-25.398 10.527-6.7344 6.7383-10.523 15.871-10.527 25.398v39.203c0.003906 9.5273 3.793 18.66 10.527 25.398 6.7383 6.7344 15.871 10.523 25.398 10.527h39.203c9.5273-0.003907 18.66-3.793 25.398-10.527 6.7344-6.7383 10.523-15.871 10.527-25.398v-39.203c-0.003907-9.5273-3.793-18.66-10.527-25.398-6.7383-6.7344-15.871-10.523-25.398-10.527zm3.2734 75.129h-0.003906c0 1.8047-1.4648 3.2695-3.2695 3.2695h-39.203c-1.8047 0-3.2695-1.4648-3.2695-3.2695v-39.203c0-1.8047 1.4648-3.2695 3.2695-3.2695h39.203c0.86719 0 1.6992 0.34375 2.3125 0.95703 0.61328 0.61328 0.95703 1.4453 0.95703 2.3125z"/>
  <path d="m278.13 315.93h-39.203c-9.5273 0.011719-18.664 3.8008-25.398 10.543-6.7383 6.7383-10.523 15.875-10.527 25.402v39.203c0.007812 9.5234 3.7969 18.656 10.531 25.395 6.7383 6.7344 15.871 10.523 25.395 10.531h39.203c9.5273-0.003906 18.66-3.793 25.398-10.527 6.7344-6.7383 10.523-15.871 10.527-25.398v-39.203c0-9.5273-3.7852-18.668-10.523-25.41-6.7344-6.7383-15.875-10.527-25.402-10.535zm3.2734 75.129h-0.003906c0 1.8086-1.4648 3.2734-3.2695 3.2734h-39.203c-1.8047 0-3.2695-1.4648-3.2695-3.2734v-39.199c0-1.8086 1.4648-3.2734 3.2695-3.2734h39.203c0.86719 0 1.6992 0.34375 2.3125 0.95703 0.61328 0.61719 0.95703 1.4492 0.95703 2.3164z"/>
  <path d="m421.87 244.07h39.203c9.5273-0.007813 18.668-3.7969 25.402-10.535 6.7383-6.7422 10.523-15.883 10.523-25.41v-39.203c-0.003906-9.5273-3.793-18.66-10.527-25.398-6.7383-6.7344-15.871-10.523-25.398-10.527h-39.203c-9.5273 0.003906-18.66 3.793-25.398 10.527-6.7344 6.7383-10.523 15.871-10.527 25.398v39.203c0 9.5273 3.7852 18.668 10.523 25.41 6.7344 6.7383 15.875 10.527 25.402 10.535zm-3.2695-75.148c0-1.8047 1.4648-3.2695 3.2695-3.2695h39.203c0.86719 0 1.6992 0.34375 2.3125 0.95703s0.95703 1.4453 0.95703 2.3125v39.203c0 1.8047-1.4648 3.2695-3.2695 3.2695h-39.203c-1.8047 0-3.2695-1.4648-3.2695-3.2695z"/>
  <path d="m461.07 427c9.5273-0.003906 18.66-3.793 25.398-10.527 6.7344-6.7383 10.523-15.871 10.527-25.398v-39.203c-0.003906-9.5273-3.793-18.66-10.527-25.398-6.7383-6.7344-15.871-10.523-25.398-10.527h-39.203c-9.5273 0.003907-18.66 3.793-25.398 10.527-6.7344 6.7383-10.523 15.871-10.527 25.398v39.203c0.003907 9.5273 3.793 18.66 10.527 25.398 6.7383 6.7344 15.871 10.523 25.398 10.527zm-42.473-35.926v-39.203c0-1.8047 1.4648-3.2695 3.2695-3.2695h39.203c0.86719 0 1.6992 0.34375 2.3125 0.95703 0.61328 0.61328 0.95703 1.4453 0.95703 2.3125v39.203c0 1.8047-1.4648 3.2695-3.2695 3.2695h-39.203c-1.8047 0-3.2695-1.4648-3.2695-3.2695z"/>
 </g>
</svg>
