<?xml version="1.0" ?><svg style="enable-background:new 0 0 48 48;" version="1.1" viewBox="0 0 48 48" xml:space="preserve" xmlns="http://www.w3.org/2000/svg" xmlns:xlink="http://www.w3.org/1999/xlink"><style type="text/css">
	.st0{display:none;}
	.st1{fill:none;stroke:#303030;stroke-width:0.7;stroke-linecap:round;stroke-linejoin:round;stroke-miterlimit:10;}
	.st2{fill:#303030;}
</style><g class="st0" id="Padding__x26__Artboard"/><g id="Icons"><g><g><path class="st1" d="M28.85,30.05c-1.12,0.92-2.5,1.52-4.01,1.7 M31.68,24.84c-0.16,1.5-0.75,2.88-1.64,4 M31.68,23.15     c-0.16-1.5-0.75-2.88-1.64-4 M28.85,17.95c-1.12-0.92-2.5-1.53-4.01-1.71 M23.93003,17.65997     c-3.48999,0-6.33002,2.85004-6.33002,6.34003s2.84003,6.33002,6.33002,6.33002S30.25999,27.48999,30.25999,24     S27.42002,17.65997,23.93003,17.65997z M23.15,31.76c-1.52-0.15-2.92-0.74-4.06-1.65 M17.89,28.91     c-0.94-1.14-1.55-2.54-1.71-4.07 M17.89,19.08c-0.93,1.14-1.55,2.54-1.71,4.07 M23.15,16.23c-1.52,0.15-2.92,0.75-4.06,1.66"/></g><g><polyline class="st1" points="23.15,16.23 23.15,14.8 24.84,14.8 24.84,16.24    "/><polyline class="st1" points="24.84,31.75 24.84,33.2 23.15,33.2 23.15,31.76    "/></g><g><polyline class="st1" points="28.85,17.95 29.9,16.89 31.1,18.09 30.04,19.15    "/><polyline class="st1" points="17.89,28.91 16.9,29.9 18.09,31.1 19.09,30.11    "/></g><g><polyline class="st1" points="31.68,23.15 33.2,23.15 33.2,24.84 31.68,24.84    "/><polyline class="st1" points="16.18,24.84 14.8,24.84 14.8,23.15 16.18,23.15    "/></g><g><polyline class="st1" points="30.04,28.84 31.1,29.9 29.9,31.1 28.85,30.05    "/><polyline class="st1" points="19.09,17.89 18.09,16.89 16.9,18.09 17.89,19.08    "/></g></g></g></svg>