<?xml version="1.0" encoding="UTF-8"?>
<svg width="700pt" height="700pt" version="1.1" viewBox="0 0 700 700" xmlns="http://www.w3.org/2000/svg">
 <g>
  <path d="m350 187.6c-23.578 0-46.191 9.3633-62.863 26.035s-26.035 39.285-26.035 62.863 9.3633 46.191 26.035 62.863 39.285 26.035 62.863 26.035 46.191-9.3633 62.863-26.035 26.035-39.285 26.035-62.863c-0.042969-23.562-9.4258-46.148-26.086-62.812-16.664-16.66-39.25-26.043-62.812-26.086zm0 142.8v-0.003906c-14.297 0-28.004-5.6758-38.113-15.785s-15.785-23.816-15.785-38.113 5.6758-28.004 15.785-38.113 23.816-15.785 38.113-15.785 28.004 5.6758 38.113 15.785 15.785 23.816 15.785 38.113-5.6758 28.004-15.785 38.113-23.816 15.785-38.113 15.785z"/>
  <path d="m561.57 55.824h-168.35l-15.051-27.473c-3.7109-6.8008-9.75-12.035-17.008-14.742-7.2617-2.707-15.25-2.707-22.508 0-7.2578 2.707-13.297 7.9414-17.012 14.742l-14.875 27.473h-168.35c-13.477 0-26.402 5.3438-35.949 14.855-9.543 9.5117-14.93 22.418-14.977 35.895v371.88c0 13.508 5.3672 26.461 14.914 36.012 9.5508 9.5469 22.504 14.914 36.012 14.914h423.15c13.508 0 26.461-5.3672 36.012-14.914 9.5469-9.5508 14.914-22.504 14.914-36.012v-371.88c-0.046875-13.477-5.4336-26.383-14.977-35.895-9.5469-9.5117-22.473-14.855-35.949-14.855zm-341.43 434.18v-2.8008c0.046874-16.09 6.4609-31.508 17.84-42.887 11.375-11.379 26.797-17.793 42.887-17.836h138.07c16.094 0.042969 31.512 6.457 42.891 17.836 11.375 11.379 17.789 26.797 17.836 42.887v2.8008zm357.35-11.551c0 4.2227-1.6797 8.2734-4.6641 11.262-2.9883 2.9844-7.0391 4.6641-11.262 4.6641h-46.723v-7.1758c-0.046874-25.371-10.148-49.695-28.09-67.637-17.941-17.941-42.262-28.043-67.637-28.086h-138.07c-25.375 0.042969-49.695 10.145-67.637 28.086-17.941 17.941-28.043 42.266-28.09 67.637v7.1758h-46.898c-4.2227 0-8.2734-1.6797-11.262-4.6641-2.9844-2.9883-4.6641-7.0391-4.6641-11.262v-371.88c0.046875-4.1914 1.7461-8.1992 4.7266-11.148 2.9805-2.9492 7.0039-4.6016 11.199-4.6016h189l22.574-41.301 22.574 41.125h189c4.1953 0 8.2188 1.6562 11.199 4.6055 2.9805 2.9453 4.6797 6.9531 4.7266 11.145z"/>
 </g>
</svg>
